<?xml version="1.0" encoding="UTF-8"?>
<svg version="1.1" xmlns="http://www.w3.org/2000/svg" width="512" height="512">
<path d="M0 0 C1.32602234 0.00273422 1.32602234 0.00273422 2.67883301 0.00552368 C15.45445885 0.04990156 27.81296522 0.4593148 40.3125 3.3125 C41.10317871 3.47878906 41.89385742 3.64507812 42.70849609 3.81640625 C68.94091777 9.37041829 94.68311233 20.36003373 116.3125 36.3125 C117.31539063 37.03308594 118.31828125 37.75367188 119.3515625 38.49609375 C158.09934 67.20338876 184.7503898 108.36936545 196.125 155.125 C196.3199707 155.92341309 196.51494141 156.72182617 196.71582031 157.54443359 C199.88775832 171.36502065 200.72163696 185.00850444 200.6875 199.125 C200.68668427 200.40150421 200.68668427 200.40150421 200.68585205 201.70379639 C200.57875809 238.34278223 191.59134236 276.47417162 170.4296875 307.03125 C169.03843891 309.19590217 169.03843891 309.19590217 169.91738605 311.11643887 C171.76422452 314.02356354 174.07517216 316.33029303 176.51713562 318.73072815 C177.05293442 319.26541354 177.58873322 319.80009892 178.14076835 320.3509869 C179.93770541 322.14185114 181.74167865 323.9254567 183.5456543 325.70922852 C184.83552542 326.99198685 186.12492744 328.27521704 187.41389465 329.55888367 C190.19182273 332.3237056 192.97272686 335.0854871 195.7558651 337.84506416 C200.16231579 342.21491295 204.56005172 346.59346087 208.95625305 350.97361755 C221.45940339 363.42848388 233.97413496 375.87167394 246.49780273 388.3059082 C253.41358273 395.17245508 260.32204919 402.04627768 267.22287112 408.92785782 C271.58485775 413.27681244 275.95567586 417.61662324 280.33339059 421.94974244 C283.06614646 424.65889831 285.79036679 427.37651565 288.51234245 430.09649849 C289.76850296 431.3483938 291.02807061 432.59688198 292.2914238 433.8415184 C302.78273587 444.18348605 312.44030097 454.31067954 312.64257812 469.87084961 C312.54248442 483.06236634 310.20442414 491.07090881 301.3125 501.3125 C298.79357299 503.5952776 296.18248041 505.49857299 293.3125 507.3125 C292.0440625 508.17875 292.0440625 508.17875 290.75 509.0625 C281.53756441 513.78682594 268.27809252 514.09830643 258.375 511.3125 C247.09999537 506.27122966 238.48944653 496.90908917 229.9465332 488.28710938 C228.64507992 486.98480808 227.34296214 485.68317056 226.04023743 484.38214111 C222.53425406 480.87701235 219.03754558 477.36276522 215.54252648 473.8467083 C211.87778008 470.16310535 208.20443713 466.48809467 204.5320282 462.81213379 C197.59190335 455.86271472 190.65945618 448.90568949 183.72978801 441.94584513 C175.8348071 434.01723825 167.93122373 426.09723028 160.02693427 418.17790508 C143.77925272 401.89893399 127.54231261 385.60928476 111.3125 369.3125 C107.61151568 370.50768487 104.49162146 371.66391082 101.25 373.8125 C87.26233814 382.39440382 72.05092854 388.77228636 56.3125 393.3125 C55.32636719 393.60181396 55.32636719 393.60181396 54.3203125 393.89697266 C49.6883521 395.2305215 45.03065497 396.33009865 40.3125 397.3125 C39.61576172 397.46348145 38.91902344 397.61446289 38.20117188 397.77001953 C13.73213681 402.83766821 -15.30883885 402.83630012 -39.6875 397.3125 C-40.47962891 397.14621094 -41.27175781 396.97992188 -42.08789062 396.80859375 C-68.31836042 391.25390603 -94.05966338 380.26382232 -115.6875 364.3125 C-116.69039063 363.59191406 -117.69328125 362.87132812 -118.7265625 362.12890625 C-157.47434 333.42161124 -184.1253898 292.25563455 -195.5 245.5 C-195.6949707 244.70158691 -195.88994141 243.90317383 -196.09082031 243.08056641 C-199.33548032 228.94311923 -200.06176477 215.05934253 -200 200.625 C-199.99817719 199.74098511 -199.99635437 198.85697021 -199.99447632 197.94616699 C-199.95009844 185.17054115 -199.5406852 172.81203478 -196.6875 160.3125 C-196.52121094 159.52182129 -196.35492188 158.73114258 -196.18359375 157.91650391 C-190.62958171 131.68408223 -179.63996627 105.94188767 -163.6875 84.3125 C-162.96691406 83.30960937 -162.24632812 82.30671875 -161.50390625 81.2734375 C-132.79661124 42.52566 -91.63063455 15.8746102 -44.875 4.5 C-44.07658691 4.3050293 -43.27817383 4.11005859 -42.45556641 3.90917969 C-28.31811923 0.66451968 -14.43434253 -0.06176477 0 0 Z M-23.4609375 22.046875 C-24.80937744 22.28591553 -24.80937744 22.28591553 -26.18505859 22.52978516 C-31.02573776 23.42596384 -35.86059775 24.34466043 -40.6875 25.3125 C-41.38230469 25.45139648 -42.07710937 25.59029297 -42.79296875 25.73339844 C-86.72392625 34.93641885 -125.66996982 65.35938596 -150.06640625 102.2421875 C-150.9442323 103.59629111 -151.81806396 104.95299416 -152.6875 106.3125 C-153.08179199 106.92899414 -153.47608398 107.54548828 -153.88232422 108.18066406 C-165.3219493 126.43528114 -172.80756111 147.17788985 -176.6875 168.3125 C-176.87006348 169.25295166 -177.05262695 170.19340332 -177.24072266 171.16235352 C-178.9228611 180.69422171 -179.08394098 190.1014416 -179.0625 199.75 C-179.06262085 200.58677277 -179.0627417 201.42354553 -179.06286621 202.28567505 C-179.03702668 214.86997919 -178.29512785 226.90059392 -175.22558594 239.16064453 C-174.73153015 241.13641935 -174.30381723 243.1284743 -173.8828125 245.12109375 C-163.47340584 290.37722841 -132.1888775 328.68996131 -93.6875 353.3125 C-93.07100586 353.70679199 -92.45451172 354.10108398 -91.81933594 354.50732422 C-69.69646899 368.37106633 -40.21442752 379.84111631 -13.6875 379.3125 C-16.34595828 377.54019448 -18.89100271 376.33060764 -21.82592773 375.10668945 C-39.65498303 367.65260212 -55.87259818 357.52303418 -70.75 345.1875 C-74.78600379 341.86534722 -79.04711559 339.1520368 -83.5 336.4375 C-120.70683242 313.71310153 -145.18786837 278.14054567 -155.6796875 236.03515625 C-158.15260326 224.94835038 -159.03536081 214.20504636 -159.00317383 202.88476562 C-159.00002247 200.5789412 -159.02354239 198.27441638 -159.04882812 195.96875 C-159.10641967 182.47220208 -157.19788642 169.43879909 -153.5 156.4375 C-153.2927832 155.70611816 -153.08556641 154.97473633 -152.87207031 154.22119141 C-143.20973483 121.58135081 -123.53941143 93.60680573 -96.625 72.9375 C-95.89547119 72.37659668 -95.16594238 71.81569336 -94.41430664 71.23779297 C-89.05871537 67.19026535 -83.53034802 63.68570035 -77.71826172 60.33984375 C-73.67142941 57.98579694 -70.34808951 55.42859 -66.94140625 52.25 C-53.16688685 40.4091653 -36.58882399 31.67595564 -19.91796875 24.72265625 C-16.62556626 23.3979633 -16.62556626 23.3979633 -13.6875 21.3125 C-17.04866504 21.24242914 -20.1526088 21.4591719 -23.4609375 22.046875 Z M154.3125 328.3125 C152.8822835 329.75994802 151.51528838 331.2705522 150.1875 332.8125 C149.46304687 333.6478125 148.73859375 334.483125 147.9921875 335.34375 C147.43789063 335.9934375 146.88359375 336.643125 146.3125 337.3125 C151.41698822 343.49384869 156.99544942 349.11072878 162.6875 354.75 C163.61433594 355.67232422 164.54117187 356.59464844 165.49609375 357.54492188 C167.76595846 359.80308625 170.03813538 362.05886942 172.3125 364.3125 C175.2534769 362.90571502 177.30198284 361.55076794 179.5625 359.1875 C180.47 358.23875 181.3775 357.29 182.3125 356.3125 C180.70827001 352.33259412 177.93003303 349.64057684 174.9375 346.671875 C174.41236816 346.14482971 173.88723633 345.61778442 173.34619141 345.07476807 C172.23911117 343.96633072 171.1295167 342.86039954 170.01757812 341.75683594 C168.31143025 340.06143699 166.61625953 338.3555839 164.921875 336.6484375 C163.84439108 335.57227442 162.76628733 334.49673149 161.6875 333.421875 C161.17912598 332.90945251 160.67075195 332.39703003 160.14697266 331.86907959 C157.68935493 329.12677922 157.68935493 329.12677922 154.3125 328.3125 Z M193.375 374.0625 C192.66472656 374.75859375 191.95445312 375.4546875 191.22265625 376.171875 C189.43129846 378.17936799 188.44865411 379.90474784 187.3125 382.3125 C187.76565142 382.76012066 188.21880283 383.20774132 188.68568611 383.66892624 C199.74589816 394.5962345 210.78912936 405.54038255 221.81410408 416.50323105 C227.14625994 421.80453925 232.48386003 427.10013397 237.83496094 432.38232422 C242.50271213 436.98999364 247.15957316 441.60835808 251.80403602 446.23950505 C254.26028731 448.68798097 256.72141236 451.1310252 259.19568253 453.56130219 C261.96762683 456.28436357 264.71519377 459.03127239 267.46142578 461.78027344 C268.27206985 462.56934586 269.08271393 463.35841827 269.91792297 464.17140198 C276.32211881 470.64536558 281.42557206 478.25853063 283.3125 487.3125 C286.96527837 486.13839267 288.78661665 483.92719603 290.5390625 480.5625 C292.14603978 475.887657 292.38354405 471.11492332 291.3125 466.3125 C287.4991887 459.35146646 282.26444735 453.84267128 276.66088867 448.30444336 C275.81305817 447.45456848 274.96522766 446.6046936 274.09170532 445.72906494 C271.78965482 443.42454061 269.48112293 441.1267732 267.1692369 438.83212352 C264.74493154 436.42296347 262.32884014 434.00559107 259.91169739 431.58924866 C255.86093496 427.54216312 251.80460491 423.5007308 247.74438477 419.46313477 C242.52700288 414.27476517 237.31904818 409.07703667 232.11393261 403.87636471 C227.63558181 399.40198491 223.15297844 394.9318726 218.66967607 390.46245503 C217.22832694 389.02520804 215.78756731 387.58737208 214.34688377 386.14945793 C211.67292164 383.48232638 208.99559989 380.81861819 206.31713867 378.15600586 C205.51664597 377.35663101 204.71615326 376.55725616 203.8914032 375.73365784 C203.16666809 375.01463287 202.44193298 374.29560791 201.69523621 373.55479431 C201.06238299 372.92491576 200.42952978 372.29503721 199.7774992 371.64607143 C196.87162744 369.00089076 195.77741062 371.681811 193.375 374.0625 Z " fill="#000000" transform="translate(199.6875,-0.3125)"/>
<path d="M0 0 C0.63905273 0.29100586 1.27810547 0.58201172 1.93652344 0.88183594 C16.33889682 7.44731729 28.57580553 16.03571674 40 27 C40.89332031 27.83015625 41.78664063 28.6603125 42.70703125 29.515625 C54.3033281 40.60914534 62.7697936 53.73546257 70 68 C70.48146484 68.94721924 70.48146484 68.94721924 70.97265625 69.91357422 C86.96685528 102.37878678 87.00550422 140.64543382 75.546875 174.453125 C74.17422053 178.0582285 72.65722311 181.5174297 71 185 C70.70899414 185.63905273 70.41798828 186.27810547 70.11816406 186.93652344 C63.55268271 201.33889682 54.96428326 213.57580553 44 225 C43.16984375 225.89332031 42.3396875 226.78664063 41.484375 227.70703125 C23.96259373 246.02292834 1.29552223 257.45993729 -23 264 C-23.63728027 264.18336914 -24.27456055 264.36673828 -24.93115234 264.55566406 C-55.89355529 273.27559741 -90.5158664 268.39697935 -119 254 C-119.70012207 253.65066406 -120.40024414 253.30132812 -121.12158203 252.94140625 C-148.94755902 238.81825177 -171.35965809 215.32850443 -184.15039062 186.88818359 C-184.94642692 185.11906156 -185.77673098 183.36547145 -186.609375 181.61328125 C-194.7102051 163.30289981 -198.21108735 143.16621448 -197.12207031 123.23876953 C-197.01892595 121.34710186 -196.96838612 119.45267605 -196.9296875 117.55859375 C-195.45917113 79.96239186 -175.86130774 46.86810724 -148.98583984 21.77880859 C-139.48132833 13.26517804 -128.34240659 6.74907817 -117 1 C-116.36852051 0.67902344 -115.73704102 0.35804687 -115.08642578 0.02734375 C-79.70571694 -17.40319356 -35.41831631 -16.85423328 0 0 Z " fill="#BDE6F3" transform="translate(257,72)"/>
<path d="M0 0 C1.68222656 0.56847656 1.68222656 0.56847656 3.3984375 1.1484375 C22.20352685 7.82732314 39.33790933 18.46386074 53.89453125 32.046875 C55.61257461 33.64060724 57.34865335 35.11458926 59.1875 36.5625 C79.55458287 54.21397182 94.130052 81.25316786 101 107 C101.34804688 108.216875 101.69609375 109.43375 102.0546875 110.6875 C110.53976958 141.28452153 108.75773776 174.27655678 98 204 C97.62101562 205.12148437 97.24203125 206.24296875 96.8515625 207.3984375 C90.17267686 226.20352685 79.53613926 243.33790933 65.953125 257.89453125 C64.35939276 259.61257461 62.88541074 261.34865335 61.4375 263.1875 C43.59611458 283.77371394 16.55216382 297.09537378 -9 305 C-9.75893555 305.24806396 -10.51787109 305.49612793 -11.29980469 305.75170898 C-46.26647593 316.86399857 -88.82554887 312.24307963 -121.375 295.875 C-121.91898437 295.58367187 -122.46296875 295.29234375 -123.0234375 294.9921875 C-124.76057108 294.12018764 -126.54980231 293.35364553 -128.34375 292.60546875 C-163.31707335 277.24859279 -189.64538734 243.30776678 -203.30053711 208.54736328 C-210.0247433 190.65434262 -213.36997464 172.67006156 -213.31567383 153.57226562 C-213.31252247 151.2664412 -213.33604239 148.96191638 -213.36132812 146.65625 C-213.41891967 133.15970208 -211.51038642 120.12629909 -207.8125 107.125 C-207.6052832 106.39361816 -207.39806641 105.66223633 -207.18457031 104.90869141 C-195.44551694 65.25359648 -167.96596059 30.43438226 -131.69140625 10.34765625 C-128.3773978 8.68824708 -125.03361585 7.26094951 -121.5625 5.96484375 C-118.66803673 4.87500773 -115.84133749 3.65884022 -113 2.4375 C-107.73353098 0.24536569 -102.50559611 -1.52157419 -97 -3 C-95.84113281 -3.33 -94.68226563 -3.66 -93.48828125 -4 C-62.78129832 -12.46860517 -29.8436407 -10.80124056 0 0 Z M-115 25 C-115.70012207 25.34933594 -116.40024414 25.69867188 -117.12158203 26.05859375 C-149.25272816 42.36684918 -174.24876514 71.60320932 -186.22558594 105.55712891 C-190.14110756 117.90855053 -192.73524986 131.04195144 -193 144 C-193.08583557 145.57422431 -193.17178313 147.14844252 -193.2578125 148.72265625 C-194.08723489 169.06137223 -189.75308786 189.60582985 -181 208 C-180.70899414 208.63905273 -180.41798828 209.27810547 -180.11816406 209.93652344 C-173.55268271 224.33889682 -164.96428326 236.57580553 -154 248 C-153.16984375 248.89332031 -152.3396875 249.78664063 -151.484375 250.70703125 C-140.39085466 262.3033281 -127.26453743 270.7697936 -113 278 C-112.05278076 278.48146484 -112.05278076 278.48146484 -111.08642578 278.97265625 C-78.62121322 294.96685528 -40.35456618 295.00550422 -6.546875 283.546875 C-2.9417715 282.17422053 0.5174297 280.65722311 4 279 C4.63905273 278.70899414 5.27810547 278.41798828 5.93652344 278.11816406 C20.33889682 271.55268271 32.57580553 262.96428326 44 252 C44.89332031 251.16984375 45.78664063 250.3396875 46.70703125 249.484375 C65.02292834 231.96259373 76.45993729 209.29552223 83 185 C83.18336914 184.36271973 83.36673828 183.72543945 83.55566406 183.06884766 C92.27559741 152.10644471 87.39697935 117.4841336 73 89 C72.65066406 88.29987793 72.30132812 87.59975586 71.94140625 86.87841797 C60.86840942 65.06197779 43.73767712 46.02531786 23 33 C22.43071777 32.63970703 21.86143555 32.27941406 21.27490234 31.90820312 C8.74888214 24.09665627 -4.76116293 18.83292388 -19 15 C-19.63728027 14.81663086 -20.27456055 14.63326172 -20.93115234 14.44433594 C-51.89355529 5.72440259 -86.5158664 10.60302065 -115 25 Z " fill="#010202" transform="translate(253,49)"/>
<path d="M0 0 C0.86109375 0.00064453 1.7221875 0.00128906 2.609375 0.00195312 C40.08276534 0.25067032 76.96627578 12.51271049 106.875 35.1875 C107.69355469 35.7959375 108.51210938 36.404375 109.35546875 37.03125 C140.82909493 61.26542872 162.50535637 94.27906892 173.875 132.1875 C174.19210937 133.21488281 174.50921875 134.24226562 174.8359375 135.30078125 C178.55720193 148.03045313 179.42440374 161.00953576 179.875 174.1875 C179.90899902 174.99719238 179.94299805 175.80688477 179.97802734 176.64111328 C180.73006218 196.09094822 178.20171553 215.7345797 171.875 234.1875 C171.65005859 234.87376465 171.42511719 235.5600293 171.19335938 236.26708984 C163.15661636 260.63708168 150.50962073 282.5216149 132.875 301.1875 C131.74537767 302.51691948 130.62020688 303.85013718 129.5 305.1875 C112.98260389 324.00526407 90.64423184 337.34710233 67.875 347.1875 C67.22982422 347.46722656 66.58464844 347.74695313 65.91992188 348.03515625 C41.2797732 358.49774246 4.76653654 367.23552098 -21.01293945 357.0144043 C-23.07641142 356.11987326 -25.10069919 355.16733518 -27.125 354.1875 C-27.88474121 353.82833496 -28.64448242 353.46916992 -29.42724609 353.09912109 C-43.98141053 346.11703569 -64.96690367 335.9246445 -74.125 322.1875 C-70.25747627 323.33730435 -66.6969393 324.83560998 -63.0625 326.5625 C-56.9040967 329.39652905 -50.63689798 331.33862589 -44.125 333.1875 C-42.98417969 333.53941406 -41.84335938 333.89132812 -40.66796875 334.25390625 C-10.3570474 343.1534292 23.41188425 340.85101804 52.875 330.1875 C53.99648437 329.80851562 55.11796875 329.42953125 56.2734375 329.0390625 C75.01434509 322.38297189 92.22088575 311.78807179 106.69140625 298.1953125 C108.875 296.1875 108.875 296.1875 111.4609375 294.1328125 C132.11588589 277.4885337 145.24534366 248.85080771 152.875 224.1875 C153.12306396 223.42856445 153.37112793 222.66962891 153.62670898 221.88769531 C162.88293412 192.76144021 160.97116827 157.78828712 150.875 129.1875 C150.49472656 128.07761719 150.11445313 126.96773438 149.72265625 125.82421875 C140.6119877 100.70086001 124.8976921 75.97900051 103.875 59.1875 C103.05733154 58.53394531 103.05733154 58.53394531 102.22314453 57.8671875 C84.54287504 43.86153055 65.43414429 33.85687557 43.875 27.1875 C43.11606445 26.93943604 42.35712891 26.69137207 41.57519531 26.43579102 C7.41862885 15.58094998 -34.65790231 19.63754678 -66.6328125 35.42578125 C-67.35210937 35.80089844 -68.07140625 36.17601562 -68.8125 36.5625 C-69.905625 37.09875 -70.99875 37.635 -72.125 38.1875 C-72.785 37.8575 -73.445 37.5275 -74.125 37.1875 C-55.84632318 19.4673383 -26.16270223 -0.36231147 0 0 Z " fill="#4BB8E7" transform="translate(200.125,19.8125)"/>
<path d="M0 0 C-2.67887041 2.67887041 -5.87290398 3.95143719 -9.25 5.5625 C-46.07573138 23.58873292 -72.19441105 54.87577348 -85.59765625 93.4375 C-89.59133307 105.80307707 -91.67495738 119.03892556 -92 132 C-92.03867188 133.16136475 -92.03867188 133.16136475 -92.078125 134.34619141 C-92.4628684 146.89604018 -91.6695716 158.72511059 -89 171 C-88.79503906 171.95519531 -88.59007812 172.91039062 -88.37890625 173.89453125 C-81.69905891 200.90434877 -68.1783341 224.09900404 -49 244 C-48.23429687 244.84046875 -47.46859375 245.6809375 -46.6796875 246.546875 C-34.89372731 259.09193093 -20.1064176 267.48949253 -4.81494141 275.04541016 C-3 276 -3 276 0 278 C-28.60318006 280.47052419 -59.81157434 266.16698876 -81.4296875 248.12890625 C-97.96778547 233.83928782 -111.15383506 217.89211427 -120.15039062 197.88818359 C-120.94642692 196.11906156 -121.77673098 194.36547145 -122.609375 192.61328125 C-130.7102051 174.30289981 -134.21108735 154.16621448 -133.12207031 134.23876953 C-133.01892595 132.34710186 -132.96838612 130.45267605 -132.9296875 128.55859375 C-131.45917113 90.96239186 -111.86130774 57.86810724 -84.98583984 32.77880859 C-63.08750455 13.16345687 -29.8265423 -2.57618887 0 0 Z " fill="#FDFDFD" transform="translate(193,61)"/>
<path d="M0 0 C5.38677338 4.50486323 10.42696762 9.25692704 15.41040039 14.20166016 C16.22108475 15.00256073 17.0317691 15.8034613 17.86701965 16.62863159 C20.53040075 19.26226481 23.18966069 21.89999442 25.84765625 24.5390625 C26.76048307 25.4453175 27.6733099 26.35157249 28.61379814 27.28528976 C32.45161826 31.0972766 36.28825961 34.91043321 40.12076664 38.72776222 C45.5796558 44.16476323 51.04835281 49.59146292 56.5309754 55.00453341 C60.8736372 59.29399312 65.1995366 63.60002204 69.52001762 67.91181564 C71.34921107 69.73248093 73.1835123 71.54803027 75.02311897 73.35817337 C77.60281843 75.89875153 80.16272006 78.45785388 82.71899414 81.02197266 C83.47188721 81.75486511 84.22478027 82.48775757 85.00048828 83.24285889 C90.89247128 89.2158607 96.75530354 96.69550948 97.15515232 105.36336708 C97.10395205 106.23345594 97.05275179 107.10354481 97 108 C91.83164674 111.26422311 86.96693429 111.92778552 81 111 C67.307565 104.83231247 56.52592032 90.65513778 46.0859375 80.18359375 C44.26198904 78.3577774 42.43781758 76.53218379 40.61343384 74.70680237 C36.32657784 70.41653698 32.04195288 66.12405554 27.7584368 61.83045584 C22.87517666 56.93595413 17.98902046 52.04434779 13.10263896 47.15296257 C3.06523833 37.10515575 -6.96858552 27.05378302 -17 17 C-16.05887499 15.8863112 -15.11547632 14.77454353 -14.17114258 13.66357422 C-13.64603592 13.04425018 -13.12092926 12.42492615 -12.57991028 11.78683472 C-10.44395092 9.37112391 -8.11010666 7.24983559 -5.6875 5.125 C-4.82511719 4.36445313 -3.96273438 3.60390625 -3.07421875 2.8203125 C-2.38972656 2.21960938 -1.70523437 1.61890625 -1 1 C-0.67 0.67 -0.34 0.34 0 0 Z " fill="#4CB9E8" transform="translate(386,381)"/>
<path d="M0 0 C25.65992572 13.1659857 47.32254275 36.09930966 57.34375 63.30859375 C58.38682164 68.07980533 58.08229902 71.14120981 55.40625 75.37109375 C51.88489964 77.59888683 49.69920137 77.9340276 45.625 78.0703125 C41.52685013 76.70192342 39.36518889 73.14623612 37.34375 69.50952148 C36.39123717 67.58254968 35.48853924 65.63798938 34.59375 63.68359375 C30.96711165 56.12316653 26.69962235 49.79451718 21.34375 43.30859375 C20.71984375 42.52097656 20.0959375 41.73335937 19.453125 40.921875 C4.13093831 22.47730993 -19.32668588 11.98808876 -42.65625 8.30859375 C-46.19698371 8.08729789 -49.73662318 7.93030261 -53.28125 7.78515625 C-57.67135582 7.16525705 -60.27949586 5.54767248 -63.53125 2.62109375 C-65.25137061 -0.91470972 -64.79009114 -3.98549594 -63.65625 -7.69140625 C-51.86452134 -23.02065351 -13.72229266 -6.50743978 0 0 Z " fill="#020202" transform="translate(254.65625,92.69140625)"/>
<path d="M0 0 C6.36590304 5.24458586 12.13570612 11.02097322 17.9375 16.875 C18.91708237 17.85960919 19.89689837 18.843986 20.87695312 19.828125 C23.25360252 22.21648203 25.62787356 24.60715212 28 27 C26.81270096 30.34914616 25.7322766 32.64432746 23.1015625 35.04296875 C22.53953125 35.55923828 21.9775 36.07550781 21.3984375 36.60742188 C20.81320312 37.12884766 20.22796875 37.65027344 19.625 38.1875 C18.75875 38.98704102 18.75875 38.98704102 17.875 39.80273438 C14.92154042 42.48310009 12.65057323 44.17471338 9 46 C0.09 37.09 -8.82 28.18 -18 19 C-16.25232838 15.50465676 -15.30083637 14.08946189 -12.55859375 11.58203125 C-11.89279297 10.96779297 -11.22699219 10.35355469 -10.54101562 9.72070312 C-9.84685547 9.09099609 -9.15269531 8.46128906 -8.4375 7.8125 C-7.73947266 7.17119141 -7.04144531 6.52988281 -6.32226562 5.86914062 C-5.03688079 4.68848161 -3.74926087 3.51024821 -2.45874023 2.33520508 C-1.62495938 1.57203395 -0.79925612 0.79925612 0 0 Z " fill="#FBF1CA" transform="translate(345,337)"/>
<path d="M0 0 C3.23614894 2.12904535 4.29269525 4.18134969 5.0625 7.875 C5.334065 11.41859207 4.9214213 12.13505715 3 15.4375 C-0.54594585 18.46632874 -2.36299711 19.08280362 -7 19 C-10.62036655 17.4366599 -13.2601659 15.57632565 -15 12 C-15.21431243 7.84233882 -14.6796522 4.88354786 -12.125 1.5625 C-7.96492179 -1.49638104 -4.8863851 -1.11443871 0 0 Z " fill="#040405" transform="translate(315,191)"/>
</svg>
